<?xml version="1.0" encoding="iso-8859-1"?>
<!-- Generator: Adobe Illustrator 19.0.0, SVG Export Plug-In . SVG Version: 6.00 Build 0)  -->
<svg version="1.1" id="Capa_1" xmlns="http://www.w3.org/2000/svg" xmlns:xlink="http://www.w3.org/1999/xlink" x="0px" y="0px"
	 viewBox="0 0 512 512" style="enable-background:new 0 0 512 512;" xml:space="preserve">
<g>
	<g>
		<path d="M256,64C112.452,64,0,123.972,0,200.533s112.452,136.533,256,136.533s256-59.972,256-136.533S399.548,64,256,64z M256,320
			c-131.746,0-238.933-53.589-238.933-119.467S124.254,81.067,256,81.067s238.933,53.589,238.933,119.467S387.746,320,256,320z"/>
	</g>
</g>
<g>
	<g>
		<path d="M179.004,121.993c-0.981-4.617-5.495-7.56-10.12-6.571c-12.331,2.62-23.987,5.094-35.029,8.738
			c-4.471,1.476-6.904,6.306-5.427,10.778c1.186,3.584,4.523,5.862,8.107,5.862c0.888,0,1.784-0.137,2.662-0.427
			c10.155-3.354,21.367-5.743,33.237-8.26C177.041,131.132,179.985,126.609,179.004,121.993z"/>
	</g>
</g>
<g>
	<g>
		<path d="M106.402,244.19c-27.196-14.379-43.443-32.316-43.46-47.983c-0.026-17.126,18.987-30.848,34.944-39.339
			c4.164-2.219,5.734-7.39,3.524-11.546c-2.21-4.156-7.39-5.734-11.546-3.524c-29.227,15.556-44.023,33.869-43.998,54.434
			c0.034,22.758,18.697,45.141,52.548,63.044c1.271,0.674,2.628,0.99,3.977,0.99c3.063,0,6.025-1.647,7.569-4.54
			C112.162,251.554,110.566,246.391,106.402,244.19z"/>
	</g>
</g>
<g>
	<g>
		<path d="M256,277.333c-33.707-0.008-71.236-5.794-108.527-16.725c-4.506-1.323-9.267,1.254-10.59,5.786
			c-1.323,4.531,1.263,9.267,5.786,10.59c38.827,11.383,78.02,17.408,113.331,17.417c4.71,0,8.533-3.823,8.533-8.533
			C264.533,281.156,260.71,277.333,256,277.333z"/>
	</g>
</g>
<g>
	<g>
		<path d="M503.467,192c-4.71,0-8.533,3.823-8.533,8.533C494.933,266.411,387.746,320,256,320S17.067,266.411,17.067,200.533
			c0-4.71-3.823-8.533-8.533-8.533S0,195.823,0,200.533v110.933C0,388.028,112.452,448,256,448s256-59.972,256-136.533V200.533
			C512,195.823,508.177,192,503.467,192z M494.933,311.467c0,65.877-107.187,119.467-238.933,119.467S17.067,377.344,17.067,311.467
			v-60.971C53.726,301.645,145.681,337.067,256,337.067s202.274-35.422,238.933-86.571V311.467z"/>
	</g>
</g>
<g>
</g>
<g>
</g>
<g>
</g>
<g>
</g>
<g>
</g>
<g>
</g>
<g>
</g>
<g>
</g>
<g>
</g>
<g>
</g>
<g>
</g>
<g>
</g>
<g>
</g>
<g>
</g>
<g>
</g>
</svg>
