<svg id="Capa_1" enable-background="new 0 0 495.437 495.437" height="512" viewBox="0 0 495.437 495.437" width="512" xmlns="http://www.w3.org/2000/svg"><g id="XMLID_4504_"><g id="XMLID_4506_"><path id="XMLID_4507_" d="m247.719 37.661c-185.429 0-172.361 167.839-171.48 194.215.001.026.002.07.002.07l11.306 92.279c5.655 46.155 30.074 87.941 67.51 115.524l43.479 32.036c14.623 10.775 31.903 16.158 49.182 16.152 17.279.006 34.559-5.377 49.182-16.152l43.479-32.036c37.435-27.583 61.855-69.369 67.51-115.524l11.306-92.279s.001-.045.002-.07c.882-26.376 13.95-194.215-171.478-194.215z" fill="#bddbff"/><path id="XMLID_4510_" d="m247.719 37.661c-3.402 0-6.73.063-10 .174 174.945 5.944 162.345 168.149 161.48 194.041-.001.026-.002.07-.002.07l-11.306 92.279c-5.655 46.155-30.074 87.941-67.51 115.524l-43.479 32.036c-11.797 8.692-25.323 13.87-39.182 15.546 3.321.402 6.66.607 10 .606 17.279.006 34.559-5.377 49.182-16.152l43.479-32.036c37.435-27.583 61.855-69.369 67.51-115.524l11.306-92.279s.001-.045.002-.07c.88-26.376 13.948-194.215-171.48-194.215z" fill="#999fed"/><circle id="XMLID_4518_" cx="323.998" cy="229.828" fill="#fff" r="43.658"/><path id="XMLID_4524_" d="m323.998 186.17c-3.443 0-6.787.411-10 1.164 19.29 4.523 33.658 21.825 33.658 42.494s-14.368 37.971-33.658 42.493c3.213.753 6.557 1.164 10 1.164 24.111 0 43.658-19.546 43.658-43.658s-19.546-43.657-43.658-43.657z" fill="#999fed"/><circle id="XMLID_4526_" cx="171.439" cy="229.828" fill="#fff" r="43.658"/><g fill="#999fed"><path id="XMLID_4527_" d="m171.439 186.17c-3.443 0-6.787.411-10 1.164 19.29 4.523 33.658 21.825 33.658 42.494s-14.368 37.971-33.658 42.493c3.213.753 6.557 1.164 10 1.164 24.111 0 43.658-19.546 43.658-43.658s-19.547-43.657-43.658-43.657z"/><path id="XMLID_4528_" d="m247.719 7.5c-12.224 0-22.134 9.91-22.134 22.134v16.053c0 12.224 9.91 22.134 22.134 22.134 12.224 0 22.134-9.91 22.134-22.134v-16.053c0-12.224-9.91-22.134-22.134-22.134z"/><path id="XMLID_4529_" d="m77.02 90.123c-8.644 8.644-8.644 22.659 0 31.303l11.351 11.351c8.644 8.644 22.659 8.644 31.303 0 8.644-8.644 8.644-22.659 0-31.303l-11.351-11.351c-8.645-8.644-22.659-8.644-31.303 0z"/><path id="XMLID_4539_" d="m418.417 90.123c8.644 8.644 8.644 22.659 0 31.303l-11.351 11.351c-8.644 8.644-22.659 8.644-31.303 0-8.644-8.644-8.644-22.659 0-31.303l11.351-11.351c8.645-8.644 22.659-8.644 31.303 0z"/></g></g><g id="XMLID_4543_"><g id="XMLID_1404_"><path id="XMLID_1405_" d="m215.097 94.708h65.244v15h-65.244z"/><path id="XMLID_1408_" d="m375.156 229.828c0-28.208-22.949-51.158-51.157-51.158-28.209 0-51.158 22.949-51.158 51.158s22.949 51.158 51.158 51.158c28.207 0 51.157-22.949 51.157-51.158zm-51.158 36.158c-19.938 0-36.158-16.22-36.158-36.158s16.221-36.158 36.158-36.158 36.157 16.22 36.157 36.158-16.219 36.158-36.157 36.158z"/><path id="XMLID_1411_" d="m171.439 178.67c-28.208 0-51.158 22.949-51.158 51.158s22.949 51.158 51.158 51.158 51.158-22.949 51.158-51.158-22.95-51.158-51.158-51.158zm0 87.316c-19.938 0-36.158-16.22-36.158-36.158s16.22-36.158 36.158-36.158 36.158 16.22 36.158 36.158-16.221 36.158-36.158 36.158z"/><path id="XMLID_1412_" d="m225.156 293.167h15v15h-15z"/><path id="XMLID_1413_" d="m255.156 293.167h15v15h-15z"/><path id="XMLID_1414_" d="m165.156 346.833h165.125v15h-165.125z"/><path id="XMLID_1415_" d="m195.156 378h105.125v15h-105.125z"/><path id="XMLID_1416_" d="m225.156 409.167h45.125v15h-45.125z"/><path id="XMLID_1417_" d="m412.069 203.536c.148 4.71.178 9.419.091 14.396l14.998.262c.091-5.224.06-10.172-.097-15.13z"/><path id="XMLID_1418_" d="m410.267 243.157-.059-.007-2.242 18.3.059.007-7.579 61.857c-.708 5.781-1.74 11.496-3.063 17.127l-23.502-23.503-10.607 10.606 29.314 29.315c-1.971 5.626-4.247 11.133-6.817 16.495l-21.121-21.121-10.607 10.606 24.289 24.289c-10.871 18.009-25.223 33.926-42.4 46.583l-43.479 32.036c-13.044 9.611-28.499 14.69-44.707 14.69-.018 0-.038 0-.057 0-16.201 0-31.659-5.08-44.702-14.69l-43.479-32.036c-17.317-12.759-31.762-28.833-42.664-47.022l23.849-23.849-10.606-10.606-20.643 20.643c-2.556-5.378-4.821-10.898-6.776-16.538l28.794-28.794-10.606-10.606-22.936 22.936c-1.259-5.447-2.24-10.973-2.925-16.56l-5.658-46.176-14.889 1.824 5.658 46.176c5.88 47.993 31.578 91.968 70.505 120.649l43.479 32.036c15.64 11.524 34.172 17.614 53.594 17.614h.069c19.426 0 37.96-6.091 53.6-17.614l43.479-32.036c38.926-28.681 64.624-72.656 70.505-120.649l11.178-91.231-14.889-1.824z"/><path id="XMLID_1421_" d="m83.726 231.366c-.028-.805-.066-1.73-.109-2.769-.566-13.751-1.988-48.549 9.161-84.056 3.593 1.468 7.418 2.204 11.243 2.204 7.589 0 15.177-2.889 20.955-8.666 11.555-11.554 11.555-30.355 0-41.909l-3.693-3.693c22.602-25.607 55.115-40.954 96.828-45.706.573 15.839 13.63 28.55 29.607 28.55s29.033-12.711 29.607-28.55c41.713 4.753 74.225 20.099 96.828 45.706l-3.693 3.693c-11.554 11.554-11.554 30.355 0 41.909 5.778 5.778 13.365 8.666 20.954 8.666 3.819 0 7.637-.733 11.226-2.197 4.254 13.546 7.138 28.348 8.543 44.177l14.941-1.327c-1.672-18.828-5.314-36.376-10.795-52.279l8.391-8.391c11.554-11.554 11.554-30.355 0-41.909-5.598-5.597-13.039-8.68-20.955-8.68-6.501 0-12.681 2.083-17.784 5.928-25.398-28.542-61.546-45.456-107.629-50.38v-2.053c.001-16.34-13.293-29.634-29.633-29.634s-29.634 13.294-29.634 29.634v2.053c-46.087 4.924-82.235 21.839-107.633 50.384-11.6-8.714-28.186-7.801-38.735 2.748-11.555 11.554-11.555 30.355 0 41.909l8.375 8.375c-13.694 39.72-12.085 78.981-11.462 94.111.045 1.095.085 2.06.113 2.885l3.859 31.812 14.889-1.824zm319.04-140.226c3.909 0 7.584 1.522 10.348 4.286 5.706 5.706 5.706 14.99 0 20.696l-11.35 11.351c-5.707 5.707-14.991 5.706-20.696 0-5.706-5.706-5.706-14.99 0-20.696l11.35-11.351c2.764-2.764 6.44-4.286 10.348-4.286zm-169.682-61.506c0-8.069 6.565-14.634 14.634-14.634 8.07 0 14.634 6.565 14.634 14.634v16.053c0 8.069-6.564 14.634-14.634 14.634-8.069 0-14.634-6.565-14.634-14.634zm-150.761 65.792c2.854-2.853 6.6-4.279 10.348-4.279 3.747 0 7.496 1.427 10.348 4.279l11.351 11.351c5.706 5.706 5.706 14.99 0 20.696-5.707 5.706-14.991 5.706-20.696 0l-11.351-11.351c-5.706-5.706-5.706-14.99 0-20.696z"/></g><g id="XMLID_4598_" fill="#fff"><path id="XMLID_51_" d="m209.618 131.759h15v15h-15z"/><path id="XMLID_50_" d="m240.219 131.759h15v15h-15z"/><path id="XMLID_49_" d="m270.82 131.759h15v15h-15z"/></g></g></g></svg>